<svg width="1031" height="659" viewBox="0 0 1031 659" fill="none" xmlns="http://www.w3.org/2000/svg">
<g filter="url(#filter0_d_102_3)">
<g filter="url(#filter1_d_102_3)">
<rect x="1021" y="645" width="1011" height="639" rx="32" transform="rotate(-180 1021 645)" fill="url(#paint0_linear_102_3)"/>
</g>
<rect x="122.25" y="223.25" width="134.5" height="94.5" rx="8.75" fill="url(#paint1_linear_102_3)" stroke="#43403D" stroke-width="2.5"/>
<path d="M213.816 247.919C214.038 248.573 214.748 248.922 215.402 248.7C216.056 248.478 216.406 247.768 216.183 247.115L213.816 247.919ZM217.854 252.929V251.679H217.3L216.928 252.089L217.854 252.929ZM216.183 247.115C214.012 240.724 210.743 234.966 206.74 230.641C202.741 226.321 197.943 223.365 192.727 222.752C182.137 221.508 170.949 229.913 161.988 252.467L164.311 253.39C173.201 231.016 183.688 224.207 192.435 225.235C196.888 225.758 201.175 228.309 204.905 232.339C208.631 236.365 211.738 241.801 213.816 247.919L216.183 247.115ZM162.098 253.604C163.675 256.063 165.61 260.504 166.173 265.689C166.733 270.853 165.93 276.695 162.128 282.083L164.171 283.524C168.399 277.532 169.269 271.045 168.658 265.42C168.05 259.817 165.97 255.011 164.202 252.254L162.098 253.604ZM163.15 281.554H123V284.054H163.15V281.554ZM161.946 283.14C163.546 288.871 166.424 297.437 171.028 304.596C175.616 311.729 182.112 317.75 191 317.75V315.25C183.387 315.25 177.548 310.113 173.131 303.244C168.729 296.399 165.931 288.117 164.354 282.468L161.946 283.14ZM191 317.75C196.562 317.75 201.823 316.034 206.584 310.73C211.279 305.501 215.43 296.85 219.062 283.123L216.645 282.484C213.05 296.072 209.025 304.269 204.724 309.06C200.49 313.775 195.937 315.25 191 315.25V317.75ZM219.035 282.395C217.741 278.649 216.555 272.628 216.292 266.896C216.161 264.034 216.262 261.291 216.675 258.967C217.094 256.615 217.807 254.841 218.78 253.769L216.928 252.089C215.492 253.672 214.666 255.992 214.214 258.529C213.758 261.095 213.658 264.036 213.795 267.011C214.067 272.952 215.29 279.213 216.672 283.212L219.035 282.395ZM217.854 254.179H257V251.679H217.854V254.179ZM217.854 284.054H257V281.554H217.854V284.054ZM163.15 251.679H123V254.179H163.15V251.679Z" fill="#43403D"/>
<circle cx="191.5" cy="234.5" r="2.5" fill="#43403D"/>
<path d="M156.297 225.743C131.542 226.035 125.068 223.82 124.407 237.142C124.323 238.816 123.818 240.525 122.583 241.657C121.692 242.474 121.967 241.708 122.449 240.648V239.208C122.892 237.948 123.645 234.454 123.113 230.564C122.582 226.674 128.208 223.9 131.088 223H159C159 224.5 157.797 225.725 156.297 225.743Z" fill="#43403D"/>
<path d="M224.559 226.598C248.585 226.878 254.952 224.786 255.648 237.213C255.744 238.919 256.238 240.685 257.551 241.778C258.273 242.378 258.009 241.675 257.563 240.72V239.355C257.132 238.161 256.399 234.851 256.917 231.166C257.434 227.481 251.959 224.853 249.157 224H222C222 225.421 223.138 226.581 224.559 226.598Z" fill="#43403D"/>
<path d="M224.559 314.402C248.73 314.12 255.028 316.24 255.66 303.56C255.738 302.004 256.228 300.425 257.378 299.374C258.31 298.522 258.041 299.256 257.563 300.28V301.645C257.132 302.839 256.399 306.149 256.917 309.834C257.434 313.519 251.959 316.147 249.157 317H222C222 315.579 223.138 314.419 224.559 314.402Z" fill="#43403D"/>
<path d="M156.297 315.257C131.542 314.965 125.068 317.18 124.407 303.858C124.323 302.184 123.818 300.475 122.583 299.343C121.692 298.526 121.967 299.292 122.449 300.352V301.792C122.892 303.052 123.645 306.546 123.113 310.436C122.582 314.326 128.208 317.1 131.088 318H159C159 316.5 157.797 315.275 156.297 315.257Z" fill="#43403D"/>
<g clip-path="url(#clip0_102_3)">
<path d="M299 264.5C300.461 267.427 301.222 270.654 301.222 273.925C301.222 277.197 300.461 280.423 299 283.35" fill="white"/>
<path d="M299 264.5C300.461 267.427 301.222 270.654 301.222 273.925C301.222 277.197 300.461 280.423 299 283.35" stroke="white" stroke-width="6" stroke-linecap="round" stroke-linejoin="round"/>
<path d="M310 260C313.34 269.035 313.34 278.966 310 288Z" fill="white"/>
<path d="M310 260C313.34 269.035 313.34 278.966 310 288" stroke="white" stroke-width="6" stroke-linecap="round" stroke-linejoin="round"/>
<path d="M320 255C322.96 261.075 324.498 267.743 324.498 274.5C324.498 281.257 322.96 287.926 320 294" stroke="white" stroke-width="6" stroke-miterlimit="10" stroke-linecap="round"/>
<path d="M330.93 250C334.597 257.647 336.501 266.019 336.501 274.5C336.501 282.981 334.597 291.353 330.93 299" stroke="white" stroke-width="6" stroke-miterlimit="10" stroke-linecap="round"/>
</g>
<circle cx="824" cy="126" r="63" fill="#FF0015"/>
<circle cx="902" cy="126" r="63" fill="#FF9F00"/>
<path fill-rule="evenodd" clip-rule="evenodd" d="M863 175.5C877.617 163.958 887 146.075 887 126C887 105.925 877.617 88.0418 863 76.5001C848.382 88.0418 839 105.925 839 126C839 146.075 848.382 163.958 863 175.5Z" fill="#FF5F00"/>
<path fill-rule="evenodd" clip-rule="evenodd" d="M156.619 426.12C151.745 426.713 147.53 428.743 145.33 431.557C144.312 432.858 143.381 434.756 142.883 436.551C142.5 437.925 142.461 438.431 142.476 441.865L142.491 445.66L140.462 445.883C133.068 446.698 127.493 448.813 124.194 452.056C122.794 453.431 121.879 454.872 121.192 456.78L120.675 458.218L120.628 490.631C120.581 522.611 120.585 523.057 120.944 524.001C121.455 525.339 122.235 526.19 123.545 526.833L124.67 527.385H132.849H141.029L142.149 526.835C143.387 526.227 144.063 525.547 144.64 524.327L145.023 523.518L145.071 485.696L145.119 447.874L148.64 447.875C154.588 447.878 164.233 448.672 166.278 449.327C170.625 450.72 173.175 454.923 173.852 461.815C173.958 462.887 174.032 475.719 174.036 493.566L174.042 523.518L174.472 524.424C174.996 525.532 176.325 526.719 177.468 527.102C178.728 527.524 192.964 527.524 194.224 527.102C195.268 526.752 196.619 525.609 197.158 524.62L197.562 523.877L197.507 487.989C197.454 452.968 197.444 452.065 197.091 450.583C196.098 446.419 192.537 441.198 187.918 437.133C181.483 431.471 173.986 427.898 165.526 426.46C162.999 426.031 158.696 425.866 156.619 426.12ZM164.383 428.722C172.653 429.939 180.377 433.561 186.37 439.033C191.207 443.448 194.3 448.176 194.887 452.049C194.987 452.711 195.084 467.705 195.12 488.201L195.182 523.221L194.805 523.718C194.597 523.991 194.2 524.382 193.922 524.586C193.43 524.947 193.207 524.957 185.846 524.957C178.486 524.957 178.262 524.947 177.77 524.586C177.492 524.382 177.095 523.992 176.887 523.718C176.51 523.222 176.51 523.181 176.413 491.889C176.323 462.767 176.293 460.442 175.989 458.937C174.693 452.517 171.701 448.564 166.946 446.99C165.039 446.359 157.516 445.702 150.854 445.585L145.153 445.486L144.927 443.425C144.345 438.12 145.846 433.686 149.019 431.331C150.748 430.048 153.749 428.923 156.373 428.573C157.833 428.378 162.658 428.468 164.383 428.722ZM210.377 446.204C209.744 446.355 208.792 447.177 208.527 447.802C208.311 448.308 208.272 453.961 208.274 483.981C208.277 518.735 208.285 519.6 208.639 521.269C209.177 523.803 209.993 526.11 211.296 528.776C213.564 533.418 216.505 537.05 220.449 540.076C226.814 544.96 234.29 547.33 245.156 547.908C250.611 548.198 252.906 547.846 256.142 546.223C258.169 545.207 260.43 542.98 261.479 540.967C262.989 538.071 263.59 535.323 263.615 531.202C263.634 528.058 263.411 528.382 265.674 528.208C267.888 528.038 271.429 527.377 273.625 526.725C279.077 525.105 282.714 522.496 284.488 518.932L285.25 517.401L285.302 483.222C285.331 464.424 285.306 448.778 285.247 448.455C285.114 447.724 284.169 446.641 283.382 446.318C282.505 445.958 263.63 445.962 262.773 446.323C262.006 446.645 261.273 447.444 261.017 448.234C260.872 448.686 260.803 459.759 260.777 487.495L260.739 526.126L258.258 526.123C255.187 526.12 251.268 525.865 247.107 525.398C243.342 524.976 242.65 524.825 240.913 524.049C236.298 521.986 233.408 518.254 232.313 512.942C232.037 511.605 232.002 508.499 231.949 480.164C231.916 462.949 231.845 448.608 231.792 448.297C231.661 447.542 231.093 446.863 230.229 446.43C229.55 446.089 229.139 446.076 220.132 446.096C214.968 446.107 210.578 446.156 210.377 446.204ZM142.551 485.606C142.55 522.946 142.548 523.161 142.181 523.753C141.968 524.097 141.484 524.494 141.037 524.693C140.315 525.016 139.769 525.039 132.849 525.039C125.929 525.039 125.383 525.016 124.661 524.693C124.214 524.494 123.731 524.097 123.517 523.753C123.151 523.162 123.148 522.931 123.148 490.932C123.147 459.341 123.154 458.683 123.509 457.562C124.739 453.672 128.727 450.83 135.186 449.239C136.777 448.847 139.682 448.354 141.453 448.176C141.806 448.141 142.197 448.098 142.323 448.083C142.505 448.06 142.551 455.669 142.551 485.606ZM229.153 448.6C229.501 448.783 229.507 449.319 229.508 479.496C229.509 499.201 229.577 510.786 229.697 511.825C230.206 516.237 232.03 520.149 234.835 522.843C236.759 524.691 238.562 525.812 241.149 526.769C243.293 527.562 249.766 528.269 256.417 528.437L261.085 528.555L261.143 530.623C261.282 535.653 260.161 539.405 257.751 541.97C256.374 543.436 254.986 544.304 252.994 544.945C251.388 545.463 251.369 545.464 246.898 545.447C239.587 545.42 234.396 544.491 228.96 542.238C220.816 538.863 214.713 532.311 211.916 523.939C210.566 519.9 210.651 522.608 210.651 483.747C210.651 450.646 210.668 448.782 210.972 448.608C211.415 448.354 228.671 448.347 229.153 448.6ZM282.489 448.523C282.751 448.622 282.778 451.804 282.778 482.747L282.778 516.862L282.256 517.941C280.212 522.166 273.644 525.182 264.99 525.868L263.403 525.993L263.283 525.203C263.216 524.769 263.189 507.447 263.222 486.711C263.272 455.083 263.322 448.961 263.533 448.711C263.761 448.442 264.651 448.414 272.992 448.414C278.056 448.414 282.329 448.463 282.489 448.523Z" fill="white"/>
<path d="M331.808 502.456H322.496L320.896 507H317.088L325.056 484.728H329.28L337.248 507H333.408L331.808 502.456ZM330.784 499.48L327.168 489.144L323.52 499.48H330.784ZM355.08 484.76V487.736H349.16V507H345.512V487.736H339.56V484.76H355.08ZM376.535 484.76V507H372.887V497.272H362.423V507H358.775V484.76H362.423V494.296H372.887V484.76H376.535ZM391.481 507.224C389.412 507.224 387.503 506.744 385.753 505.784C384.025 504.803 382.649 503.448 381.625 501.72C380.623 499.971 380.121 498.008 380.121 495.832C380.121 493.656 380.623 491.704 381.625 489.976C382.649 488.248 384.025 486.904 385.753 485.944C387.503 484.963 389.412 484.472 391.481 484.472C393.572 484.472 395.481 484.963 397.209 485.944C398.959 486.904 400.335 488.248 401.337 489.976C402.34 491.704 402.841 493.656 402.841 495.832C402.841 498.008 402.34 499.971 401.337 501.72C400.335 503.448 398.959 504.803 397.209 505.784C395.481 506.744 393.572 507.224 391.481 507.224ZM391.481 504.056C392.953 504.056 394.265 503.725 395.417 503.064C396.569 502.381 397.465 501.421 398.105 500.184C398.767 498.925 399.097 497.475 399.097 495.832C399.097 494.189 398.767 492.749 398.105 491.512C397.465 490.275 396.569 489.325 395.417 488.664C394.265 488.003 392.953 487.672 391.481 487.672C390.009 487.672 388.697 488.003 387.545 488.664C386.393 489.325 385.487 490.275 384.825 491.512C384.185 492.749 383.865 494.189 383.865 495.832C383.865 497.475 384.185 498.925 384.825 500.184C385.487 501.421 386.393 502.381 387.545 503.064C388.697 503.725 390.009 504.056 391.481 504.056ZM413.759 507.224C412.266 507.224 410.922 506.968 409.727 506.456C408.532 505.923 407.594 505.176 406.911 504.216C406.228 503.256 405.887 502.136 405.887 500.856H409.791C409.876 501.816 410.25 502.605 410.911 503.224C411.594 503.843 412.543 504.152 413.759 504.152C415.018 504.152 415.999 503.853 416.703 503.256C417.407 502.637 417.759 501.848 417.759 500.888C417.759 500.141 417.535 499.533 417.087 499.064C416.66 498.595 416.116 498.232 415.455 497.976C414.815 497.72 413.919 497.443 412.767 497.144C411.316 496.76 410.132 496.376 409.215 495.992C408.319 495.587 407.551 494.968 406.911 494.136C406.271 493.304 405.951 492.195 405.951 490.808C405.951 489.528 406.271 488.408 406.911 487.448C407.551 486.488 408.447 485.752 409.599 485.24C410.751 484.728 412.084 484.472 413.599 484.472C415.754 484.472 417.514 485.016 418.879 486.104C420.266 487.171 421.034 488.643 421.183 490.52H417.151C417.087 489.709 416.703 489.016 415.999 488.44C415.295 487.864 414.367 487.576 413.215 487.576C412.17 487.576 411.316 487.843 410.655 488.376C409.994 488.909 409.663 489.677 409.663 490.68C409.663 491.363 409.866 491.928 410.271 492.376C410.698 492.803 411.231 493.144 411.871 493.4C412.511 493.656 413.386 493.933 414.495 494.232C415.967 494.637 417.162 495.043 418.079 495.448C419.018 495.853 419.807 496.483 420.447 497.336C421.108 498.168 421.439 499.288 421.439 500.696C421.439 501.827 421.13 502.893 420.511 503.896C419.914 504.899 419.028 505.709 417.855 506.328C416.703 506.925 415.338 507.224 413.759 507.224ZM457.48 484.76V507H453.832V491.768L447.048 507H444.52L437.704 491.768V507H434.056V484.76H437.992L445.8 502.2L453.576 484.76H457.48ZM486.139 491.384C486.139 492.515 485.873 493.581 485.339 494.584C484.806 495.587 483.953 496.408 482.779 497.048C481.606 497.667 480.102 497.976 478.267 497.976H474.235V507H470.587V484.76H478.267C479.974 484.76 481.414 485.059 482.587 485.656C483.782 486.232 484.667 487.021 485.243 488.024C485.841 489.027 486.139 490.147 486.139 491.384ZM478.267 495C479.654 495 480.689 494.691 481.371 494.072C482.054 493.432 482.395 492.536 482.395 491.384C482.395 488.952 481.019 487.736 478.267 487.736H474.235V495H478.267ZM505.259 507.224C503.766 507.224 502.422 506.968 501.227 506.456C500.032 505.923 499.094 505.176 498.411 504.216C497.728 503.256 497.387 502.136 497.387 500.856H501.291C501.376 501.816 501.75 502.605 502.411 503.224C503.094 503.843 504.043 504.152 505.259 504.152C506.518 504.152 507.499 503.853 508.203 503.256C508.907 502.637 509.259 501.848 509.259 500.888C509.259 500.141 509.035 499.533 508.587 499.064C508.16 498.595 507.616 498.232 506.955 497.976C506.315 497.72 505.419 497.443 504.267 497.144C502.816 496.76 501.632 496.376 500.715 495.992C499.819 495.587 499.051 494.968 498.411 494.136C497.771 493.304 497.451 492.195 497.451 490.808C497.451 489.528 497.771 488.408 498.411 487.448C499.051 486.488 499.947 485.752 501.099 485.24C502.251 484.728 503.584 484.472 505.099 484.472C507.254 484.472 509.014 485.016 510.379 486.104C511.766 487.171 512.534 488.643 512.683 490.52H508.651C508.587 489.709 508.203 489.016 507.499 488.44C506.795 487.864 505.867 487.576 504.715 487.576C503.67 487.576 502.816 487.843 502.155 488.376C501.494 488.909 501.163 489.677 501.163 490.68C501.163 491.363 501.366 491.928 501.771 492.376C502.198 492.803 502.731 493.144 503.371 493.4C504.011 493.656 504.886 493.933 505.995 494.232C507.467 494.637 508.662 495.043 509.579 495.448C510.518 495.853 511.307 496.483 511.947 497.336C512.608 498.168 512.939 499.288 512.939 500.696C512.939 501.827 512.63 502.893 512.011 503.896C511.414 504.899 510.528 505.709 509.355 506.328C508.203 506.925 506.838 507.224 505.259 507.224ZM520.892 484.76V507H517.244V484.76H520.892ZM529.329 504.056H536.849V507H525.681V484.76H529.329V504.056ZM559.068 484.76L550.716 507H546.492L538.108 484.76H542.012L548.604 503.256L555.228 484.76H559.068ZM575.527 502.456H566.215L564.615 507H560.807L568.775 484.728H572.999L580.967 507H577.127L575.527 502.456ZM574.503 499.48L570.887 489.144L567.239 499.48H574.503Z" fill="white"/>
</g>
<defs>
<filter id="filter0_d_102_3" x="0" y="3.05176e-05" width="1031" height="659" filterUnits="userSpaceOnUse" color-interpolation-filters="sRGB">
<feFlood flood-opacity="0" result="BackgroundImageFix"/>
<feColorMatrix in="SourceAlpha" type="matrix" values="0 0 0 0 0 0 0 0 0 0 0 0 0 0 0 0 0 0 127 0" result="hardAlpha"/>
<feOffset dy="4"/>
<feGaussianBlur stdDeviation="5"/>
<feComposite in2="hardAlpha" operator="out"/>
<feColorMatrix type="matrix" values="0 0 0 0 0 0 0 0 0 0 0 0 0 0 0 0 0 0 0.25 0"/>
<feBlend mode="normal" in2="BackgroundImageFix" result="effect1_dropShadow_102_3"/>
<feBlend mode="normal" in="SourceGraphic" in2="effect1_dropShadow_102_3" result="shape"/>
</filter>
<filter id="filter1_d_102_3" x="0" y="3.05176e-05" width="1031" height="659" filterUnits="userSpaceOnUse" color-interpolation-filters="sRGB">
<feFlood flood-opacity="0" result="BackgroundImageFix"/>
<feColorMatrix in="SourceAlpha" type="matrix" values="0 0 0 0 0 0 0 0 0 0 0 0 0 0 0 0 0 0 127 0" result="hardAlpha"/>
<feOffset dy="4"/>
<feGaussianBlur stdDeviation="5"/>
<feComposite in2="hardAlpha" operator="out"/>
<feColorMatrix type="matrix" values="0 0 0 0 0 0 0 0 0 0 0 0 0 0 0 0 0 0 0.25 0"/>
<feBlend mode="normal" in2="BackgroundImageFix" result="effect1_dropShadow_102_3"/>
<feBlend mode="normal" in="SourceGraphic" in2="effect1_dropShadow_102_3" result="shape"/>
</filter>
<linearGradient id="paint0_linear_102_3" x1="2023" y1="1276" x2="1031.5" y2="645" gradientUnits="userSpaceOnUse">
<stop stop-color="#A959D5"/>
<stop offset="1" stop-color="#790BA7"/>
</linearGradient>
<linearGradient id="paint1_linear_102_3" x1="132.5" y1="225" x2="252" y2="316" gradientUnits="userSpaceOnUse">
<stop stop-color="#DFDDD9"/>
<stop offset="0.158882" stop-color="white"/>
<stop offset="0.526042" stop-color="#DAD3C7"/>
<stop offset="0.752931" stop-color="#CCC7C1"/>
<stop offset="1" stop-color="#D9CEB3"/>
<stop offset="1" stop-color="#231F1F"/>
</linearGradient>
<clipPath id="clip0_102_3">
<rect width="43.5" height="55" fill="white" transform="translate(296 247)"/>
</clipPath>
</defs>
</svg>
